HIERARCHY
ROOT Hips
{
	OFFSET 0.000000 0.000000 0.000000
	CHANNELS 6 Xposition Yposition Zposition Xrotation Yrotation Zrotation
	JOINT LeftUpLeg_virtual
	{
		OFFSET 0.000000 0.000000 0.000000
		CHANNELS 3 Xrotation Yrotation Zrotation
		JOINT LeftUpLeg
		{
			OFFSET 15.427100 -6.655098 0.678600
			CHANNELS 3 Xrotation Yrotation Zrotation
			JOINT LeftLeg
			{
				OFFSET 4.081073 -39.591068 13.024000
				CHANNELS 3 Xrotation Yrotation Zrotation
				JOINT LeftFoot
				{
					OFFSET -4.081074 -37.707932 -15.979700
					CHANNELS 3 Xrotation Yrotation Zrotation
					JOINT LeftToeBase
					{
						OFFSET 5.346399 -15.068900 20.645000
						CHANNELS 3 Xrotation Yrotation Zrotation
						JOINT LeftToe_End
						{
							OFFSET 2.754700 0.931300 11.300900
							CHANNELS 3 Xrotation Yrotation Zrotation
							End Site
							{
								OFFSET 0 0 0
							}
						}
					}
				}
			}
		}
	}
	JOINT RightUpLeg_virtual
	{
		OFFSET 0.000000 0.000000 0.000000
		CHANNELS 3 Xrotation Yrotation Zrotation
		JOINT RightUpLeg
		{
			OFFSET -15.569500 -6.655098 0.678600
			CHANNELS 3 Xrotation Yrotation Zrotation
			JOINT RightLeg
			{
				OFFSET -4.081825 -39.591045 13.023800
				CHANNELS 3 Xrotation Yrotation Zrotation
				JOINT RightFoot
				{
					OFFSET 4.081824 -37.707954 -15.979600
					CHANNELS 3 Xrotation Yrotation Zrotation
					JOINT RightToeBase
					{
						OFFSET -5.346400 -15.068900 20.645000
						CHANNELS 3 Xrotation Yrotation Zrotation
						JOINT RightToe_End
						{
							OFFSET -2.754700 0.931300 11.300900
							CHANNELS 3 Xrotation Yrotation Zrotation
							End Site
							{
								OFFSET 0 0 0
							}
						}
					}
				}
			}
		}
	}
	JOINT Spine_virtual
	{
		OFFSET 0.000000 0.000000 0.000000
		CHANNELS 3 Xrotation Yrotation Zrotation
		JOINT Spine
		{
			OFFSET -0.279200 12.230698 -2.892100
			CHANNELS 3 Xrotation Yrotation Zrotation
			JOINT Spine1
			{
				OFFSET -0.232667 10.192268 -1.242267
				CHANNELS 3 Xrotation Yrotation Zrotation
				JOINT Spine1_split
				{
					OFFSET -0.232667 10.192268 -1.242267
					CHANNELS 3 Xrotation Yrotation Zrotation
					JOINT Spine2
					{
						OFFSET -0.232667 10.192268 -1.242267
						CHANNELS 3 Xrotation Yrotation Zrotation
						JOINT Neck_virtual
						{
							OFFSET 0.000000 0.000000 0.000000
							CHANNELS 3 Xrotation Yrotation Zrotation
							JOINT Neck
							{
								OFFSET -0.418800 17.814194 8.416900
								CHANNELS 3 Xrotation Yrotation Zrotation
								JOINT Head
								{
									OFFSET 0.000000 7.031097 3.806800
									CHANNELS 3 Xrotation Yrotation Zrotation
									JOINT HeadTop_End
									{
										OFFSET 0.000000 24.646606 12.978600
										CHANNELS 3 Xrotation Yrotation Zrotation
										End Site
										{
											OFFSET 0 0 0
										}
									}
								}
							}
						}
						JOINT LeftShoulder_virtual
						{
							OFFSET 0.000000 0.000000 0.000000
							CHANNELS 3 Xrotation Yrotation Zrotation
							JOINT LeftShoulder
							{
								OFFSET 8.476499 7.247704 -3.868750
								CHANNELS 3 Xrotation Yrotation Zrotation
								JOINT LeftShoulder_split
								{
									OFFSET 8.476499 7.247704 -3.868750
									CHANNELS 3 Xrotation Yrotation Zrotation
									JOINT LeftArm
									{
										OFFSET 9.308998 -2.777710 0.208600
										CHANNELS 3 Xrotation Yrotation Zrotation
										JOINT LeftForeArm
										{
											OFFSET 29.972298 0.000000 0.000000
											CHANNELS 3 Xrotation Yrotation Zrotation
											JOINT LeftHand
											{
												OFFSET 26.026505 0.000000 0.000000
												CHANNELS 3 Xrotation Yrotation Zrotation
												End Site
												{
													OFFSET 0 0 0
												}
											}
										}
									}
								}
							}
						}
						JOINT RightShoulder_virtual
						{
							OFFSET 0.000000 0.000000 0.000000
							CHANNELS 3 Xrotation Yrotation Zrotation
							JOINT RightShoulder
							{
								OFFSET -7.570500 7.247704 -3.868750
								CHANNELS 3 Xrotation Yrotation Zrotation
								JOINT RightShoulder_split
								{
									OFFSET -7.570500 7.247704 -3.868750
									CHANNELS 3 Xrotation Yrotation Zrotation
									JOINT RightArm
									{
										OFFSET -9.308998 -2.777710 0.208500
										CHANNELS 3 Xrotation Yrotation Zrotation
										JOINT RightForeArm
										{
											OFFSET -29.972300 0.000000 0.000000
											CHANNELS 3 Xrotation Yrotation Zrotation
											JOINT RightHand
											{
												OFFSET -26.026505 0.000000 0.000000
												CHANNELS 3 Xrotation Yrotation Zrotation
												End Site
												{
													OFFSET 0 0 0
												}
											}
										}
									}
								}
							}
						}
					}
				}
			}
		}
	}
}
MOTION
Frames: 6
Frame Time: 0.03333333
5.102589 97.466522 -7.181002 0.000000 0.000000 0.000000 -2.071824 -3.304475 -2.660383 -11.936914 16.943905 12.177379 12.798525 1.630708 4.436839 -0.437688 2.110682 -15.367676 -1.279102 -3.724175 0.434421 0.000000 0.000000 0.000000 -1.904146 -2.980971 -2.731808 6.714178 -10.913811 0.480090 2.644118 -2.904935 2.217111 -9.017836 -6.888170 8.572998 -3.528271 0.521717 -5.460979 0.000000 0.000000 0.000000 -2.264959 -1.118014 -2.911459 3.098120 -0.961931 3.946534 -0.508555 0.209088 2.029766 0.135100 -0.183264 -0.020690 0.000000 0.000000 0.000000 0.798667 2.170482 1.914527 8.616276 2.674006 0.802354 -6.134525 -14.539895 -11.952101 0.000000 0.000000 0.000000 -0.258795 0.802868 1.297515 -1.565882 -18.006966 -14.370096 -0.107519 0.434538 -4.150747 12.652674 -22.912570 -65.905417 0.303211 -5.735530 2.661154 0.000000 0.000000 0.000000 0.630029 1.154196 2.064070 1.267930 9.597547 13.530855 -4.441942 0.562601 1.455061 10.546104 28.909162 62.272686 -3.574871 -0.604393 0.972300 0.000000 0.000000 0.000000 
5.129044 97.455872 -7.136930 0.000000 0.000000 0.000000 -2.104984 -3.412261 -2.684521 -11.874849 16.912675 12.164524 12.873788 1.664478 4.418363 -0.470034 2.243925 -15.312721 -1.269268 -3.733911 0.432318 0.000000 0.000000 0.000000 -1.916226 -3.021546 -2.739569 6.758481 -10.866989 0.502597 2.612748 -2.872803 2.183100 -8.957740 -7.033237 8.527609 -3.326253 0.500931 -5.358973 0.000000 0.000000 0.000000 -2.320127 -1.213917 -2.953890 3.137555 -0.984506 3.943383 -0.499425 0.201662 2.044311 0.130616 -0.183812 -0.026600 0.000000 0.000000 0.000000 0.796560 2.169694 1.926681 8.602507 2.665308 0.820146 -6.194464 -14.488629 -11.913039 0.000000 0.000000 0.000000 -0.241190 0.797052 1.317905 -1.566012 -18.062599 -14.376167 -0.126954 0.379752 -4.096602 12.558589 -22.910924 -65.953584 0.263785 -5.871937 2.643503 0.000000 0.000000 0.000000 0.625957 1.146009 2.076711 1.247925 9.523643 13.550878 -4.458841 0.553037 1.497321 10.687760 28.896918 62.150466 -3.553959 -0.685696 1.023932 0.000000 0.000000 0.000000 
5.149343 97.427269 -7.096632 0.000000 0.000000 0.000000 -2.171051 -3.631016 -2.722778 -11.741173 16.901392 12.199848 13.013276 1.725948 4.420500 -0.588286 2.485054 -15.295801 -1.291907 -3.745845 0.414544 0.000000 0.000000 0.000000 -1.965845 -3.181851 -2.761105 6.736361 -10.767961 0.523949 2.669338 -2.719727 2.144806 -8.875299 -7.231669 8.573621 -3.077727 0.496180 -5.468004 0.000000 0.000000 0.000000 -2.396781 -1.403653 -3.015715 3.182929 -0.989704 3.953721 -0.480593 0.183307 2.067499 0.125714 -0.180065 -0.032529 0.000000 0.000000 0.000000 0.808972 2.159003 1.940284 8.588628 2.648267 0.853865 -6.328795 -14.405579 -11.902312 0.000000 0.000000 0.000000 -0.216448 0.780183 1.346151 -1.580319 -18.106811 -14.363268 -0.129403 0.345348 -4.107394 12.454326 -22.870839 -66.003635 0.310610 -5.956799 2.682821 0.000000 0.000000 0.000000 0.621784 1.125183 2.095493 1.260927 9.475865 13.567599 -4.557132 0.604810 1.557169 10.991367 28.943340 61.926552 -3.504387 -0.740934 1.059589 0.000000 0.000000 0.000000 
5.146332 97.387245 -7.061468 0.000000 0.000000 0.000000 -2.269275 -3.934183 -2.766499 -11.564726 16.914825 12.270451 13.200604 1.805351 4.429531 -0.770015 2.807366 -15.319527 -1.331092 -3.758776 0.391771 0.000000 0.000000 0.000000 -2.042783 -3.437718 -2.789707 6.676118 -10.621514 0.558956 2.781092 -2.453569 2.090650 -8.820114 -7.457523 8.670451 -2.748268 0.506007 -5.771256 0.000000 0.000000 0.000000 -2.495165 -1.649932 -3.086655 3.230757 -0.970650 3.976531 -0.453748 0.158495 2.093425 0.124267 -0.169980 -0.032809 0.000000 0.000000 0.000000 0.834746 2.140145 1.951056 8.575964 2.618346 0.904757 -6.516062 -14.299767 -11.907566 0.000000 0.000000 0.000000 -0.185491 0.754989 1.374070 -1.612115 -18.144124 -14.326334 -0.152798 0.351256 -4.180398 12.367582 -22.744556 -66.057942 0.420658 -5.960830 2.768595 0.000000 0.000000 0.000000 0.622112 1.095746 2.116232 1.301497 9.464064 13.569427 -4.684014 0.685689 1.619969 11.433936 29.105181 61.619870 -3.421681 -0.777377 1.058791 0.000000 0.000000 0.000000 
5.130961 97.337769 -7.043585 0.000000 0.000000 0.000000 -2.389746 -4.292197 -2.812376 -11.363954 16.945696 12.350526 13.416682 1.898885 4.438087 -0.971476 3.188550 -15.376388 -1.351428 -3.772896 0.370391 0.000000 0.000000 0.000000 -2.144369 -3.756355 -2.821645 6.594698 -10.437713 0.609685 2.926761 -2.099121 2.009163 -8.823824 -7.710025 8.752381 -2.304071 0.521928 -6.227456 0.000000 0.000000 0.000000 -2.616698 -1.946228 -3.155033 3.280540 -0.921619 4.010357 -0.416840 0.132333 2.116431 0.122387 -0.162482 -0.028882 0.000000 0.000000 0.000000 0.869390 2.116578 1.953007 8.564193 2.571988 0.977020 -6.708189 -14.201039 -11.904997 0.000000 0.000000 0.000000 -0.148348 0.723355 1.397481 -1.660686 -18.189982 -14.255964 -0.185780 0.377774 -4.286711 12.309949 -22.513010 -66.102455 0.564340 -5.913597 2.879990 0.000000 0.000000 0.000000 0.631376 1.062180 2.133838 1.365732 9.499931 13.538211 -4.836535 0.738054 1.684072 11.999690 29.419568 61.224101 -3.302623 -0.772559 1.000984 0.000000 0.000000 0.000000 
5.111526 97.287857 -7.050299 0.000000 0.000000 0.000000 -2.520019 -4.675836 -2.851290 -11.152941 16.984997 12.415977 13.632054 2.009160 4.440541 -1.161318 3.604727 -15.450192 -1.355470 -3.787958 0.356100 0.000000 0.000000 0.000000 -2.267487 -4.106261 -2.847931 6.500930 -10.234849 0.663585 3.096862 -1.680784 1.899688 -8.868355 -7.978493 8.812027 -1.806250 0.534039 -6.794287 0.000000 0.000000 0.000000 -2.761094 -2.266726 -3.214490 3.335998 -0.846726 4.050279 -0.369701 0.106565 2.130961 0.120235 -0.167808 -0.025085 0.000000 0.000000 0.000000 0.910953 2.091019 1.943621 8.557050 2.510854 1.069533 -6.858118 -14.152604 -11.874857 0.000000 0.000000 0.000000 -0.105483 0.685653 1.411515 -1.723278 -18.250612 -14.147550 -0.216072 0.398084 -4.395298 12.290090 -22.154466 -66.145731 0.715468 -5.846210 2.996020 0.000000 0.000000 0.000000 0.648165 1.025227 2.144223 1.443309 9.592075 13.473652 -4.994729 0.757154 1.733080 12.642369 29.864801 60.758938 -3.152246 -0.689138 0.874757 0.000000 0.000000 0.000000 
